<?xml version="1.0" encoding="UTF-8"?>
<!DOCTYPE svg PUBLIC "-//W3C//DTD SVG 1.1//EN" "http://www.w3.org/Graphics/SVG/1.1/DTD/svg11.dtd">
<!-- Creator: CorelDRAW 2017 -->
<svg xmlns="http://www.w3.org/2000/svg" xml:space="preserve" width="34.2018mm" height="9.2043mm" version="1.1" style="shape-rendering:geometricPrecision; text-rendering:geometricPrecision; image-rendering:optimizeQuality; fill-rule:evenodd; clip-rule:evenodd"
viewBox="0 0 1715.44 461.66"
 xmlns:xlink="http://www.w3.org/1999/xlink">
 <defs>
  <style type="text/css">
   <![CDATA[
    .str0 {stroke:#E6E7E8;stroke-width:3.82;stroke-miterlimit:22.9256}
    .fil4 {fill:none}
    .fil0 {fill:#2D5D73}
    .fil2 {fill:#CC4E18}
    .fil1 {fill:#E67E22}
    .fil3 {fill:#2D5D73;fill-rule:nonzero}
   ]]>
  </style>
     <mask id="id0">
  <linearGradient id="id1" gradientUnits="userSpaceOnUse" x1="164.56" y1="90.44" x2="208.7" y2="145.57">
   <stop offset="0" style="stop-opacity:1; stop-color:white"/>
   <stop offset="1" style="stop-opacity:0; stop-color:white"/>
  </linearGradient>
      <rect style="fill:url(#id1)" x="122.02" y="62.69" width="247.9" height="208.74"/>
     </mask>
 </defs>
 <g id="Layer_x0020_1">
  <metadata id="CorelCorpID_0Corel-Layer"/>
  <g id="_2152534192032">
   <g>
    <path class="fil0" d="M306.71 77.57c-47.68,-18.09 -103.72,-13.81 -142.61,15.2 -18.92,14.11 -37.72,33.01 -41.96,60.09 -5.6,28.28 5.67,42.33 18.8,54.96 6.74,6.48 12.54,10.84 19.24,18.15 8.94,9.75 15.65,6.19 10.25,21.77 -6.66,19.18 -21.63,66.74 -26.08,87.53 -2.39,11.17 1.25,20 12.62,23.18 3.3,-2.28 4.67,-5.34 7.4,-9.69 2.39,-3.82 4.65,-7.04 7.11,-10.91 4.95,-7.81 9.07,-14.53 14.01,-22.09 4.61,-7.04 24.11,-40.64 28.41,-43.74 1.65,1.2 16.01,15.71 17.71,17.91 5.12,6.63 10.6,13.28 15.45,21.95 9.02,16.14 13.96,31.8 15.34,47 2.06,30.24 -29.4,51.45 -47.35,28.72 15.94,9.68 35.08,-3.88 31.82,-21.52 -2.92,-15.83 -25.99,-24.99 -40.08,-15.63 -13.66,9.07 -12.6,28.27 -21.39,42.56 -14.24,23.18 -36.39,19.44 -43.75,11.75l-0.01 0.09c-13.82,-14.59 -26.39,-29.87 -40,-49.39 -27.46,-39.39 -56.22,-102.14 -50.86,-165.31 5.48,-64.69 45.6,-108.26 88.36,-129.7 25.81,-12.95 56.84,-19.35 89.93,-15.47 15.04,1.76 30.37,5.93 42.82,11.28 6.55,2.81 11.79,5.46 18.05,9.01 5.04,2.86 13.54,7.72 16.77,12.31z"/>
    <path class="fil1" d="M338.32 108.45c7.06,9.44 13.3,19.74 18.44,31.84 11.47,27.03 15.22,53.84 11.85,86.31 -3.45,33.26 -18.47,46.15 -54.1,44.55 -25.86,-1.16 -59.97,-13.22 -73.39,-26.53 5.18,-6.4 80.81,-49.34 86.4,-56.7 -5.76,-23.81 -34.31,-9.79 -57.73,-3.2 -13.92,3.91 -53.15,18.5 -64.13,19.08l-29.92 -33.36c-9.23,-9.35 -18.81,-17.46 -36.4,-18.63l-0.27 -0.02c-5.58,-0.32 -11.23,-0.03 -16.94,1.07 8.36,-53.45 72.53,-89.81 126.37,-90.03 39.43,-0.72 67.81,14.58 89.81,45.62z"/>
    <path class="fil2" style="mask:url(#id0)" d="M338.32 108.45c7.06,9.44 13.3,19.74 18.44,31.84 11.47,27.03 15.22,53.84 11.85,86.31 -3.45,33.26 -18.47,46.15 -54.1,44.55 -25.86,-1.16 -59.97,-13.22 -73.39,-26.53 5.18,-6.4 80.81,-49.34 86.4,-56.7 -5.76,-23.81 -34.31,-9.79 -57.73,-3.2 -13.92,3.91 -53.15,18.5 -64.13,19.08l-29.92 -33.36c-9.23,-9.35 -18.81,-17.46 -36.4,-18.63l-0.27 -0.02c-5.58,-0.32 -11.23,-0.03 -16.94,1.07 8.36,-53.45 72.53,-89.81 126.37,-90.03 39.43,-0.72 67.81,14.58 89.81,45.62z"/>
   </g>
   <path class="fil3" d="M649.96 367.08c0,2.31 -1.49,3.45 -4.53,3.45 -1.7,0 -4.38,-0.16 -7.93,-0.47 -3.56,-0.31 -6.28,-0.46 -8.09,-0.46 -1.91,0 -4.79,0.16 -8.71,0.46 -3.86,0.31 -6.75,0.47 -8.65,0.47 -2.32,0 -3.5,-1.14 -3.5,-3.45 0,-9.07 0.26,-22.67 0.77,-40.79 0.52,-18.13 0.77,-31.73 0.77,-40.79 0,-3.91 -1.13,-6.18 -3.45,-6.8 -3.04,-0.77 -20.45,-1.19 -52.22,-1.19 -31.73,0 -49.14,0.42 -52.23,1.19 -2.21,0.62 -3.35,2.88 -3.35,6.8 0,8.86 0.26,22.2 0.77,40.02 0.52,17.82 0.77,31.16 0.77,40.02 0,3.35 -1.24,5 -3.76,5 -1.91,0 -4.79,-0.16 -8.6,-0.47 -3.81,-0.31 -6.64,-0.46 -8.55,-0.46 -1.81,0 -4.48,0.16 -8.09,0.46 -3.56,0.31 -6.23,0.47 -8.04,0.47 -2.52,0 -3.76,-1.14 -3.76,-3.45 0,-11.07 0.52,-27.71 1.54,-49.91 1.03,-22.15 1.54,-38.79 1.54,-49.86 0,-11.64 -0.51,-29.21 -1.54,-52.59 -1.03,-23.38 -1.54,-40.89 -1.54,-52.58 0,-2.22 1.24,-3.3 3.76,-3.3 1.8,0 4.58,0.16 8.29,0.46 3.71,0.31 6.49,0.47 8.45,0.47 1.8,0 4.58,-0.16 8.4,-0.47 3.81,-0.31 6.64,-0.46 8.45,-0.46 2.32,0 3.45,0.93 3.45,2.73 0,8.6 -0.36,21.63 -1.08,38.94 -0.72,17.35 -1.08,30.33 -1.08,38.99 0,2.83 1.08,4.53 3.19,5.15 2.47,0.88 20.19,1.34 53.05,1.34 32.19,0 49.75,-0.46 52.79,-1.34 2.32,-0.62 3.45,-2.78 3.45,-6.49 0,-8.45 -0.26,-21.17 -0.77,-38.16 -0.52,-16.99 -0.77,-29.72 -0.77,-38.16 0,-2.01 1.18,-2.98 3.5,-2.98 1.91,0 4.69,0.16 8.35,0.46 3.71,0.31 6.49,0.47 8.4,0.47 1.8,0 4.53,-0.16 8.14,-0.47 3.66,-0.31 6.38,-0.46 8.19,-0.46 2.62,0 3.91,1.08 3.91,3.3 0,11.69 -0.52,29.2 -1.54,52.58 -1.03,23.38 -1.54,40.95 -1.54,52.59 0,11.07 0.57,27.71 1.7,49.86 1.13,22.19 1.7,38.83 1.7,49.91zm177.33 -133.14c0,0.42 -0.16,1.29 -0.47,2.73 -4.02,23.02 -6.02,42.85 -6.02,59.54 0,1.03 1.29,23.59 3.86,67.73l0.16 2.11c0.11,2.94 -1.24,4.38 -4.02,4.38 -2.78,0 -6.95,0.31 -12.57,0.98 -5.56,0.67 -9.73,0.98 -12.46,0.98 -1.91,0 -3.35,-3.5 -4.38,-10.51 -1.03,-7 -1.96,-10.5 -2.88,-10.5 -0.62,0 -3.3,1.96 -8.14,5.87 -5.92,4.79 -11.49,8.45 -16.59,10.97 -7.98,4.02 -15.91,6.03 -23.84,6.03 -19.52,0 -36,-7.78 -49.39,-23.38 -12.67,-14.89 -19,-32.24 -19,-52.07 0,-22.3 6.38,-40.79 19.16,-55.37 13.39,-15.19 31,-22.77 52.84,-22.77 15.4,0 28.84,5.36 40.28,16.02 1.7,2.01 4.38,4.94 8.04,8.75 0.26,0.31 0.57,0.47 0.87,0.47 0.62,0 1.49,-3.14 2.58,-9.53 1.13,-6.33 2.52,-9.53 4.27,-9.53 2.73,0 7.83,0.77 15.3,2.27 8.29,1.8 12.41,3.45 12.41,4.84zm-38.63 63.09c0,-12.36 -3.66,-22.92 -11.02,-31.78 -7.73,-9.52 -17.61,-14.31 -29.72,-14.31 -12.05,0 -22.09,4.74 -30.18,14.16 -7.72,9.06 -11.59,19.67 -11.59,31.93 0,12.16 3.86,22.72 11.59,31.68 8.09,9.32 18.13,14 30.18,14 11.8,0 21.63,-4.78 29.56,-14.31 7.47,-8.96 11.17,-19.37 11.17,-31.37zm101.11 -135.76l-0.16 1.96c-2.17,37.4 -3.25,69.53 -3.25,96.42 0,11.95 0.21,29.87 0.62,53.77 0.41,23.89 0.57,41.77 0.57,53.67 0,2.31 -0.77,3.45 -2.37,3.45l-28.84 0c-1.8,0 -2.73,-1.14 -2.73,-3.45 0,-11.9 0.11,-29.77 0.31,-53.67 0.21,-23.9 0.31,-41.82 0.31,-53.77 0,-10.86 -0.51,-27.19 -1.54,-48.98 -1.03,-21.79 -1.54,-38.01 -1.54,-48.77 0,-2.01 1.03,-3.04 3.14,-3.04 1.8,0 4.53,0.16 8.14,0.46 3.61,0.31 6.28,0.47 8.14,0.47 1.86,0 4.69,-0.16 8.4,-0.47 3.71,-0.31 6.44,-0.46 8.24,-0.46 1.8,0 2.68,0.82 2.58,2.42zm176.81 72.67c0,0.42 -0.15,1.29 -0.46,2.73 -4.02,23.02 -6.02,42.85 -6.02,59.54 0,1.03 1.28,23.59 3.86,67.73l0.16 2.11c0.1,2.94 -1.24,4.38 -4.02,4.38 -2.78,0 -6.96,0.31 -12.57,0.98 -5.56,0.67 -9.74,0.98 -12.46,0.98 -1.91,0 -3.35,-3.5 -4.38,-10.51 -1.03,-7 -1.96,-10.5 -2.88,-10.5 -0.62,0 -3.3,1.96 -8.14,5.87 -5.92,4.79 -11.49,8.45 -16.59,10.97 -7.98,4.02 -15.91,6.03 -23.84,6.03 -19.52,0 -36,-7.78 -49.39,-23.38 -12.67,-14.89 -19,-32.24 -19,-52.07 0,-22.3 6.38,-40.79 19.15,-55.37 13.39,-15.19 31.01,-22.77 52.84,-22.77 15.4,0 28.84,5.36 40.28,16.02 1.7,2.01 4.38,4.94 8.04,8.75 0.26,0.31 0.57,0.47 0.87,0.47 0.62,0 1.49,-3.14 2.58,-9.53 1.13,-6.33 2.52,-9.53 4.27,-9.53 2.73,0 7.83,0.77 15.3,2.27 8.29,1.8 12.41,3.45 12.41,4.84zm-38.63 63.09c0,-12.36 -3.66,-22.92 -11.02,-31.78 -7.73,-9.52 -17.61,-14.31 -29.72,-14.31 -12.05,0 -22.09,4.74 -30.18,14.16 -7.72,9.06 -11.59,19.67 -11.59,31.93 0,12.16 3.86,22.72 11.59,31.68 8.09,9.32 18.13,14 30.18,14 11.79,0 21.63,-4.78 29.56,-14.31 7.47,-8.96 11.17,-19.37 11.17,-31.37zm203.7 -109.65c0,2.62 -0.92,3.91 -2.73,3.91 -2.83,0 -20.65,-0.62 -53.51,-1.86 -0.82,30.7 -1.23,55.26 -1.23,73.81 0,11.54 0.41,28.9 1.23,52.07 0.83,23.12 1.24,40.48 1.24,52.02 0,2.11 -1.44,3.19 -4.38,3.19 -1.81,0 -4.53,-0.16 -8.29,-0.47 -3.71,-0.31 -6.49,-0.46 -8.4,-0.46 -1.81,0 -4.58,0.16 -8.29,0.46 -3.71,0.31 -6.49,0.47 -8.3,0.47 -2.52,0 -3.76,-1.24 -3.76,-3.76 0,-11.49 0.46,-28.69 1.39,-51.71 0.93,-22.97 1.39,-40.28 1.39,-51.81 0,-17.92 -0.52,-42.54 -1.54,-73.81 -26.01,1.65 -45.12,2.47 -57.22,2.47 -1.18,0 -1.8,-0.51 -1.8,-1.49 0,-1.85 0.46,-4.43 1.39,-7.88 1.13,-4.43 1.8,-7.06 2.01,-7.83 0.21,-3.55 0.93,-8.45 2.16,-14.68 0.52,-1.29 1.34,-1.96 2.58,-1.96l1.8 0.16c35.59,2.06 59.07,3.09 70.46,3.09 10.04,0 26.52,-0.72 49.34,-2.22 15.6,-0.98 22.09,-1.49 19.47,-1.49 2.63,0 4.07,0.93 4.38,2.73 -0.21,-1.08 -0.31,3.76 -0.31,14.63 0,1.34 0.15,3.35 0.46,6.13 0.31,2.78 0.46,4.84 0.46,6.28zm104.2 41.41c0,11.07 -0.77,21.17 -2.27,30.23 -0.31,2.32 -1.34,3.45 -3.04,3.45 -2.11,0 -5.31,-0.21 -9.58,-0.67 -4.33,-0.47 -7.57,-0.67 -9.79,-0.67 -12.72,0 -20.86,3.56 -24.36,10.71 -2.11,4.33 -3.19,13.34 -3.19,26.99l0 16.64c0,5.61 0.2,14.16 0.62,25.65 0.41,11.44 0.62,19.98 0.62,25.65 0,2.68 -1.13,4.07 -3.45,4.07 -3.09,0 -7.77,-0.05 -14.06,-0.16 -6.28,-0.1 -11.02,-0.15 -14.11,-0.15 -2.27,0 -3.45,-1.24 -3.45,-3.76 0,-8.14 0.16,-20.44 0.41,-36.82 0.26,-16.38 0.36,-28.74 0.36,-36.98 0,-24.82 -2.27,-44.8 -6.8,-59.9 -0.21,-0.83 -0.31,-1.39 -0.31,-1.81 0,-1.23 0.67,-2.06 1.96,-2.57 3.66,-0.41 8.86,-1.03 15.55,-1.86 10.76,-2.06 15.76,-3.09 14.94,-3.09 1.6,0 2.68,2.99 3.14,8.96 0.52,6.02 1.44,9.01 2.73,9.01 0.21,0 0.46,-0.11 0.77,-0.31 4.12,-2.62 8.24,-5.25 12.41,-7.93 4.53,-2.73 9.16,-4.74 13.95,-6.08 3.92,-1.18 8.96,-1.8 15.14,-1.8 7.88,0 11.8,1.08 11.8,3.19zm55.93 -38.74c0,12.36 -6.9,18.54 -20.7,18.54 -14.01,0 -21.02,-6.18 -21.02,-18.54 0,-5.51 2.16,-10.09 6.49,-13.7 4.02,-3.45 8.86,-5.15 14.53,-5.15 5.61,0 10.5,1.75 14.58,5.26 4.07,3.55 6.13,8.09 6.13,13.59zm-1.24 40.9c0,7.72 -0.46,19.42 -1.39,35.07 -0.93,15.65 -1.39,27.4 -1.39,35.22 0,7.37 0.16,18.34 0.46,32.96 0.31,14.63 0.47,25.6 0.47,32.81 0,2.11 -0.93,3.19 -2.73,3.19l-29.46 0c-2.12,0 -3.19,-2.06 -3.19,-6.18 0,-6.95 0.21,-17.41 0.57,-31.32 0.36,-13.95 0.51,-24.41 0.51,-31.47 0,-7.82 -0.56,-19.62 -1.7,-35.33 -1.13,-15.65 -1.7,-27.45 -1.7,-35.28 0,-1.7 1.03,-2.57 3.14,-2.57 1.8,0 4.58,0.26 8.35,0.77 3.76,0.46 6.59,0.72 8.5,0.72 1.91,0 4.74,-0.26 8.5,-0.72 3.76,-0.52 6.6,-0.77 8.5,-0.77 1.7,0 2.57,0.98 2.57,2.88zm180.83 66.95c0,20.34 -6.44,37.96 -19.32,52.95 -13.49,15.81 -30.23,23.69 -50.27,23.69 -12.46,0 -23.38,-3.87 -32.7,-11.59 -4.22,-3.91 -8.45,-7.88 -12.72,-11.9 -0.57,0.31 -0.98,1.08 -1.18,2.42 -0.1,0.62 -0.16,6.23 -0.16,16.89l-0.16 42.59c0,3.25 -1.13,4.84 -3.45,4.84 -15.45,0 -24.57,-0.21 -27.35,-0.62 -2.32,-0.31 -3.5,-1.6 -3.5,-3.92 0,-12.88 0.1,-32.19 0.31,-57.99 0.21,-25.75 0.31,-45.07 0.31,-57.94 0,-23.69 -1.54,-45.89 -4.63,-66.59 -0.21,-1.24 -0.31,-2.01 -0.31,-2.42 0,-1.08 0.52,-1.8 1.49,-2.11 3.86,-0.21 9.42,-0.77 16.79,-1.65 9.84,-1.8 15.4,-2.67 16.59,-2.67 1.75,0 2.83,3.03 3.35,9.11 0.31,4.07 0.57,8.04 0.72,12 0,0.83 0.31,1.65 0.93,2.42 0.72,-0.36 1.49,-1.08 2.42,-2.11 14.06,-14.47 28.33,-21.73 42.7,-21.73 19.93,0 36.72,7.77 50.37,23.38 13.19,14.99 19.78,32.65 19.78,52.95zm-35.23 -0.52c0,-12.1 -3.76,-22.66 -11.33,-31.83 -7.93,-9.73 -17.87,-14.63 -29.77,-14.63 -11.64,0 -21.22,5.05 -28.69,15.09 -6.85,9.01 -10.25,19.57 -10.25,31.62 0,12.31 3.5,22.92 10.56,31.98 7.78,9.74 17.61,14.63 29.61,14.63 11.49,0 21.12,-5.1 29,-15.24 7.27,-9.42 10.87,-19.98 10.87,-31.62zm129.17 26.58c0,14.99 -5.97,26.99 -17.98,36.05 -10.92,8.24 -24.16,12.36 -39.81,12.36 -6.03,0 -9.48,-0.15 -10.3,-0.46 -1.7,-0.77 -2.58,-3.25 -2.58,-7.36 0,-2.22 -0.26,-5.51 -0.82,-9.94 -0.57,-4.43 -0.82,-7.67 -0.82,-9.79 0,-1.29 0.93,-2.17 2.73,-2.58 1.29,-0.31 3.14,-0.31 5.56,0 3.14,0.31 4.63,0.46 4.53,0.46 19.05,0 28.58,-5.87 28.58,-17.56 0,-5.51 -4.17,-10.56 -12.46,-15.19 -13.5,-7.47 -21.27,-12 -23.28,-13.75 -8.29,-7.11 -12.46,-16.48 -12.46,-28.02 0,-15.09 5.72,-26.83 17.1,-35.28 10.3,-7.57 23.28,-11.33 39.04,-11.33 1.39,0 2.42,0.67 3.09,1.96 0.67,1.34 1.91,5.41 3.81,12.26 1.86,6.85 2.78,10.97 2.78,12.41 0,1.08 -0.98,1.8 -2.88,2.11 -6.44,0.87 -12.93,1.75 -19.47,2.52 -7.77,2.11 -11.64,6.33 -11.64,12.62 0,4.53 4.07,9.11 12.15,13.75 12,6.7 19.62,11.59 22.82,14.63 8.19,7.83 12.31,17.87 12.31,30.13z"/>
  </g>
 </g>
</svg>
